# xmcd
#
# Track frame offsets:
#	150
#	13646
#	31615
#	47457
#	69551
#	86213
#	105103
#	124035
#	142366
#	162016
#	181939
#	199528
#	217496
#	230846
#	245071
#
# Disc length: 3449 seconds
#
# Revision: 0
# Processed by: cddbd v1.4PL0 Copyright (c) Steve Scherf et al.
# Submitted via: audiograbber 1.80
#
DISCID=d10d770f
DTITLE=Siempre Boleros Vol II CD2 - Siempre Boleros Vol II CD2
DYEAR=1900
DGENRE=
TTITLE0=Francisco Cespedes - ¿Donde esta la Vida?
TTITLE1=Chayanne - Otra Vez
TTITLE2=Presuntos Implicados - Esperare
TTITLE3=Alejandro Fernandez - Quiereme
TTITLE4=Amparo Sandino - Por Ultima Vez
TTITLE5=Edith Marquez - Esta Vez
TTITLE6=Elvis Crespo - Enamorado de Ti
TTITLE7=Enrique Urquijo - Demasiado Tarde
TTITLE8=Danza Invisible - La Ruina
TTITLE9=Frankie Negron - Enamorado De Ti ( Ballad Version )
TTITLE10=Complices - La Luna No Pinta Nada
TTITLE11=Cafe Quijano - La Duda Eterna
TTITLE12=Diego Vasallo - Collar De Lunas
TTITLE13=Los Hidalgo - Toda Tu
TTITLE14=Alberto Tarin - Bolero de Luna
EXTD=
EXTT0=
EXTT1=
EXTT2=
EXTT3=
EXTT4=
EXTT5=
EXTT6=
EXTT7=
EXTT8=
EXTT9=
EXTT10=
EXTT11=
EXTT12=
EXTT13=
EXTT14=
PLAYORDER=
